PathFileType	4	(X/Y/Z)	AB10\squats_1.trc
DataRate	CameraRate	NumFrames	NumMarkers	Units	OrigDataRate	OrigDataStartFrame	OrigNumFrames
200.000000	200.000000	4	35	mm	200.000000	85	343
Frame#	Time	C7			LSHO			STRN			LASI			RASI			LPSI			RPSI			LGTR			RGTR			LTHL			LTHR			LKNE			LMKNE			LSHC			LSHL			LSHR			LANK			LMANK			LMT1			LMT5			LCAL			RTHC			RTHL			RTHR			RKNE			RMKNE			RSHC			RSHL			RSHR			RANK			RMANK			RMT1			RMT5			RCAL			LTHC			
		X1	Y1	Z1	X2	Y2	Z2	X3	Y3	Z3	X4	Y4	Z4	X5	Y5	Z5	X6	Y6	Z6	X7	Y7	Z7	X8	Y8	Z8	X9	Y9	Z9	X10	Y10	Z10	X11	Y11	Z11	X12	Y12	Z12	X13	Y13	Z13	X14	Y14	Z14	X15	Y15	Z15	X16	Y16	Z16	X17	Y17	Z17	X18	Y18	Z18	X19	Y19	Z19	X20	Y20	Z20	X21	Y21	Z21	X22	Y22	Z22	X23	Y23	Z23	X24	Y24	Z24	X25	Y25	Z25	X26	Y26	Z26	X27	Y27	Z27	X28	Y28	Z28	X29	Y29	Z29	X30	Y30	Z30	X31	Y31	Z31	X32	Y32	Z32	X33	Y33	Z33	X34	Y34	Z34	X35	Y35	Z35	

86	25.05	-3539.914643990505	1258.899280950982	2493.651019323077	-3562.194793327455	1203.035148041693	2646.131717213971	-3593.501943161714	1090.736591636513	2494.691026908532	-3395.331846180636	787.9028011605092	2618.141056419293	-3405.176207800431	774.3258051092544	2348.129872457603	-3221.82863759448	865.1076771723674	2531.185011229556	-3234.500337133744	868.4212959777393	2438.116329134766	-3331.670029250541	772.6612799818135	2690.577362477207	-3322.184563307708	756.1918720903016	2274.562898747736	-3563.309063709804	647.562748009696	2655.464138341676	-3452.299569740703	509.5602754446035	2672.169751947238	-3611.50914332104	461.0445889758538	2717.81937411986	-3626.255689503334	444.4740411010418	2589.874175858833	-3519.991555599245	292.2790979532377	2727.917768825534	-3536.584621261825	177.4687239830892	2676.112417454417	-3442.614990678129	214.6272032664332	2657.655878968174	-3425.25476939186	98.45121967424009	2705.274274438827	-3454.909622242312	90.51205971925359	2618.915406468466	-3572.387489347137	62.10236944251332	2676.419829226778	-3516.619349406332	50.34672894372596	2763.533480614279	-3357.514198725247	73.67872972178689	2650.644223582609	-3484.193252446941	471.7332737463586	2341.06554801262	-3436.221035580936	618.7341863199565	2260.8792442106	-3573.866250144806	634.0203242003057	2342.512288006091	-3633.086720972409	430.9650597290625	2255.634644621714	-3648.46121238716	415.0033868563559	2376.009177420293	-3544.764087350704	182.6013851228354	2312.03314820218	-3461.257135515784	250.6993689339334	2297.100872672204	-3537.567700652808	291.7442896544451	2243.88294585207	-3420.469973602387	109.2561890506798	2266.545122188681	-3449.656933633829	102.8743150202189	2350.855107257613	-3568.80138396025	60.3519029816254	2291.250976981768	-3516.918202920427	51.14935948023851	2208.073765055283	-3351.715216301838	78.31110272511394	2319.53895559593	-3435.243473765919	647.7538576652557	2721.143978486665	
87	25.055	-3540.359032714514	1254.954437632001	2493.577041153736	-3562.597145896094	1199.008584702824	2645.985082344676	-3593.851862571333	1086.679008484828	2494.571766689313	-3394.882121985105	784.6101074800737	2617.804017012219	-3404.650757652098	771.053765083058	2347.845571354745	-3221.427235574382	861.8472404383186	2530.914235510418	-3234.104023455517	865.172858626859	2437.859588922378	-3331.121440717632	769.6713979164895	2690.323077171467	-3321.591283879046	753.2274293398011	2274.11606715343	-3563.119169679099	646.150549644841	2655.366338278219	-3452.991814370821	507.4304387271035	2672.270240671904	-3612.537993857571	460.1620020636838	2718.030268740886	-3627.442132035024	443.6592222638294	2590.062880934308	-3520.68155464716	291.979293058327	2727.996588885421	-3536.923196360099	177.1539691176563	2676.142270998359	-3443.0863666017	214.5708624629266	2657.638258774999	-3425.346936663434	98.48933989186072	2705.196032457697	-3454.99867298348	90.43288702825268	2618.829928989044	-3572.401553621286	62.09564980133398	2676.434297853604	-3516.619961328607	50.35668339875408	2763.533230100623	-3357.549014054621	73.68383573830663	2650.611218467293	-3485.063453400378	469.8132297065185	2340.553233181463	-3436.062621819426	616.3925841756719	2260.47013809566	-3573.653535844441	632.6496862845955	2342.045218997928	-3634.092230288568	430.0866963609871	2255.007622614823	-3649.556702952324	414.2797332762169	2375.37217988882	-3545.151273718835	182.2267547311116	2311.806755265909	-3461.839542273524	250.5533263157677	2296.870953710167	-3538.231467000066	291.2902402603273	2243.53508931118	-3420.609524122934	109.25140809769	2266.50023022425	-3449.792878917891	102.8611319350508	2350.874567721249	-3568.84545866394	60.39443266497079	2291.194377967303	-3516.923995748575	51.12733796522826	2208.028786055119	-3351.779298754783	78.30730984141002	2319.570079205772	-3435.050976842572	645.5375183730068	2721.003731626313	
88	25.06	-3540.80244465052	1251.014901030208	2493.498895090489	-3562.99435422076	1194.990156291708	2645.835156308989	-3594.214804551851	1082.634132883495	2494.451794892277	-3394.445897978634	781.3276520122855	2617.46630651901	-3404.132050750636	767.7947634547147	2347.558406948201	-3221.036994966409	858.6000959986845	2530.648814487564	-3233.713826778482	861.9313058757587	2437.607713304039	-3330.592845596904	766.6962010153055	2690.070546895042	-3320.995711082673	750.2693634005335	2273.675213709692	-3562.91316335071	644.7412044038861	2655.266750475429	-3453.667472976911	505.3116963030267	2672.371295509447	-3613.541795908184	459.2902073576349	2718.241605219908	-3628.603925771906	442.855233664325	2590.251520343946	-3521.354542010606	291.6827137520806	2728.076432411238	-3537.254044900942	176.8470171319294	2676.174672940169	-3443.548290174412	214.5176438617599	2657.622932559586	-3425.440548667388	98.52994254415306	2705.120687017467	-3455.089949773389	90.3581291251717	2618.747062123244	-3572.416638709788	62.08974908555133	2676.449048446046	-3516.620978852889	50.36571024073197	2763.532756070644	-3357.583191547332	73.6891637655599	2650.577934143261	-3485.912988318068	467.9047890630179	2340.05136221339	-3435.890858639898	614.0576363554122	2260.066735493001	-3573.424253347164	631.2833768379678	2341.582670481842	-3635.07338884832	429.2216517586952	2254.386817306555	-3650.630620318929	413.5704285674119	2374.743368058764	-3545.526342236974	181.8600190672636	2311.582469290241	-3462.408386237023	250.4113631564255	2296.636193098243	-3538.881506409279	290.841223838018	2243.186748506409	-3420.743374885483	109.2447208412661	2266.452687611419	-3449.917885566932	102.8524444491309	2350.887621547812	-3568.887394591853	60.43809886645042	2291.138393935212	-3516.928964258914	51.10519753347501	2207.985414863175	-3351.839161138021	78.30637909214887	2319.598896921716	-3434.854929848717	643.3338915807141	2720.864083019126	
89	25.065	-3541.244873554846	1247.080999161598	2493.416104657052	-3563.387177069243	1190.980310954193	2645.681546903985	-3594.591518086816	1078.602235405962	2494.330370094754	-3394.022626843296	778.0556827275602	2617.129318196759	-3403.620136375206	764.5497602836598	2347.269484371721	-3220.657584029434	855.3666814340181	2530.389884112374	-3233.329355075652	858.6973191063282	2437.362121368719	-3330.082278044003	763.7364772439574	2689.819985877597	-3320.397689515169	747.3198532701169	2273.241849991161	-3562.69031829954	643.3365687479704	2655.165840826583	-3454.325830517231	503.204424867131	2672.472821851811	-3614.520119266449	458.4296956665503	2718.453254763375	-3629.740270499202	442.0625903147952	2590.440164898939	-3522.010535581256	291.3888772492762	2728.157739998789	-3537.577069105992	176.5475718888185	2676.209545287061	-3444.000346325896	214.4678855974098	2657.610477930723	-3425.535101962843	98.57301751620308	2705.049267374155	-3455.183297157417	90.28795212872349	2618.667190866045	-3572.43283131984	62.0846577935737	2676.463945641254	-3516.622354315319	50.37349903039034	2763.532267256336	-3357.616733316048	73.69482026783656	2650.544715864803	-3486.741852305988	466.0089790703237	2339.559332633799	-3435.706532904558	611.7314679929592	2259.669802215087	-3573.178163990444	629.9215239181667	2341.127441176753	-3636.0304533754	428.3699489557364	2253.773612853805	-3651.682007414556	412.8753594003238	2374.124574813182	-3545.889094695748	181.5011640552512	2311.361473107213	-3462.963662537478	250.2732011548521	2296.396484356238	-3539.518788618447	290.3972152543349	2242.838314028909	-3420.871546579333	109.2362996054495	2266.402924902551	-3450.032390039262	102.8486074875483	2350.894076175245	-3568.926985857931	60.48213546672514	2291.083449833533	-3516.933070345463	51.08305694881567	2207.943838297094	-3351.894433220902	78.30899696086215	2319.625369144032	-3434.653574268685	641.1425668812374	2720.724527975238	
